<mxfile host="app.diagrams.net" agent="Mozilla/5.0 (Windows NT 10.0; Win64; x64) AppleWebKit/537.36 (KHTML, like Gecko) Chrome/131.0.0.0 Safari/537.36" version="25.0.3">
  <diagram name="Page-1" id="Q7Jc-U5oQZaszpS_9bVV">
    <mxGraphModel dx="1461" dy="618" grid="1" gridSize="10" guides="1" tooltips="1" connect="1" arrows="1" fold="1" page="1" pageScale="1" pageWidth="827" pageHeight="1169" math="0" shadow="0">
      <root>
        <mxCell id="0" />
        <mxCell id="1" parent="0" />
        <mxCell id="FeGgzAsvBUvjDZ8w_RRN-5" value="" style="shape=umlLifeline;perimeter=lifelinePerimeter;whiteSpace=wrap;html=1;container=1;dropTarget=0;collapsible=0;recursiveResize=0;outlineConnect=0;portConstraint=eastwest;newEdgeStyle={&quot;curved&quot;:0,&quot;rounded&quot;:0};participant=umlActor;" parent="1" vertex="1">
          <mxGeometry x="230" y="50" width="20" height="1470" as="geometry" />
        </mxCell>
        <mxCell id="y2ZRHQF2_I_StF2kvI1N-1" value="" style="html=1;points=[[0,0,0,0,5],[0,1,0,0,-5],[1,0,0,0,5],[1,1,0,0,-5]];perimeter=orthogonalPerimeter;outlineConnect=0;targetShapes=umlLifeline;portConstraint=eastwest;newEdgeStyle={&quot;curved&quot;:0,&quot;rounded&quot;:0};" parent="FeGgzAsvBUvjDZ8w_RRN-5" vertex="1">
          <mxGeometry x="6" y="320" width="10" height="60" as="geometry" />
        </mxCell>
        <mxCell id="FeGgzAsvBUvjDZ8w_RRN-6" value="" style="shape=umlLifeline;perimeter=lifelinePerimeter;whiteSpace=wrap;html=1;container=1;dropTarget=0;collapsible=0;recursiveResize=0;outlineConnect=0;portConstraint=eastwest;newEdgeStyle={&quot;curved&quot;:0,&quot;rounded&quot;:0};participant=umlActor;" parent="1" vertex="1">
          <mxGeometry x="350" y="50" width="20" height="1470" as="geometry" />
        </mxCell>
        <mxCell id="y2ZRHQF2_I_StF2kvI1N-3" value="" style="html=1;points=[[0,0,0,0,5],[0,1,0,0,-5],[1,0,0,0,5],[1,1,0,0,-5]];perimeter=orthogonalPerimeter;outlineConnect=0;targetShapes=umlLifeline;portConstraint=eastwest;newEdgeStyle={&quot;curved&quot;:0,&quot;rounded&quot;:0};" parent="FeGgzAsvBUvjDZ8w_RRN-6" vertex="1">
          <mxGeometry x="5" y="70" width="10" height="130" as="geometry" />
        </mxCell>
        <mxCell id="EF1INXUBX0xFHSXuswrt-35" value="" style="html=1;points=[[0,0,0,0,5],[0,1,0,0,-5],[1,0,0,0,5],[1,1,0,0,-5]];perimeter=orthogonalPerimeter;outlineConnect=0;targetShapes=umlLifeline;portConstraint=eastwest;newEdgeStyle={&quot;curved&quot;:0,&quot;rounded&quot;:0};" parent="FeGgzAsvBUvjDZ8w_RRN-6" vertex="1">
          <mxGeometry x="5" y="570" width="10" height="150" as="geometry" />
        </mxCell>
        <mxCell id="y2ZRHQF2_I_StF2kvI1N-18" value="" style="html=1;points=[[0,0,0,0,5],[0,1,0,0,-5],[1,0,0,0,5],[1,1,0,0,-5]];perimeter=orthogonalPerimeter;outlineConnect=0;targetShapes=umlLifeline;portConstraint=eastwest;newEdgeStyle={&quot;curved&quot;:0,&quot;rounded&quot;:0};" parent="FeGgzAsvBUvjDZ8w_RRN-6" vertex="1">
          <mxGeometry x="5" y="940" width="10" height="100" as="geometry" />
        </mxCell>
        <mxCell id="y2ZRHQF2_I_StF2kvI1N-24" value="" style="html=1;points=[[0,0,0,0,5],[0,1,0,0,-5],[1,0,0,0,5],[1,1,0,0,-5]];perimeter=orthogonalPerimeter;outlineConnect=0;targetShapes=umlLifeline;portConstraint=eastwest;newEdgeStyle={&quot;curved&quot;:0,&quot;rounded&quot;:0};" parent="FeGgzAsvBUvjDZ8w_RRN-6" vertex="1">
          <mxGeometry x="5" y="1110" width="10" height="40" as="geometry" />
        </mxCell>
        <mxCell id="EF1INXUBX0xFHSXuswrt-72" value="" style="html=1;points=[[0,0,0,0,5],[0,1,0,0,-5],[1,0,0,0,5],[1,1,0,0,-5]];perimeter=orthogonalPerimeter;outlineConnect=0;targetShapes=umlLifeline;portConstraint=eastwest;newEdgeStyle={&quot;curved&quot;:0,&quot;rounded&quot;:0};" parent="FeGgzAsvBUvjDZ8w_RRN-6" vertex="1">
          <mxGeometry x="5" y="1360" width="10" height="60" as="geometry" />
        </mxCell>
        <mxCell id="FeGgzAsvBUvjDZ8w_RRN-7" value="Branch Manager page" style="shape=umlLifeline;perimeter=lifelinePerimeter;whiteSpace=wrap;html=1;container=1;dropTarget=0;collapsible=0;recursiveResize=0;outlineConnect=0;portConstraint=eastwest;newEdgeStyle={&quot;curved&quot;:0,&quot;rounded&quot;:0};" parent="1" vertex="1">
          <mxGeometry x="470" y="50" width="120" height="1470" as="geometry" />
        </mxCell>
        <mxCell id="y2ZRHQF2_I_StF2kvI1N-17" value="" style="html=1;points=[[0,0,0,0,5],[0,1,0,0,-5],[1,0,0,0,5],[1,1,0,0,-5]];perimeter=orthogonalPerimeter;outlineConnect=0;targetShapes=umlLifeline;portConstraint=eastwest;newEdgeStyle={&quot;curved&quot;:0,&quot;rounded&quot;:0};" parent="FeGgzAsvBUvjDZ8w_RRN-7" vertex="1">
          <mxGeometry x="55" y="480" width="10" height="240" as="geometry" />
        </mxCell>
        <mxCell id="EF1INXUBX0xFHSXuswrt-36" value="" style="html=1;points=[[0,0,0,0,5],[0,1,0,0,-5],[1,0,0,0,5],[1,1,0,0,-5]];perimeter=orthogonalPerimeter;outlineConnect=0;targetShapes=umlLifeline;portConstraint=eastwest;newEdgeStyle={&quot;curved&quot;:0,&quot;rounded&quot;:0};" parent="FeGgzAsvBUvjDZ8w_RRN-7" vertex="1">
          <mxGeometry x="55" y="70" width="10" height="190" as="geometry" />
        </mxCell>
        <mxCell id="EF1INXUBX0xFHSXuswrt-52" value="" style="html=1;points=[[0,0,0,0,5],[0,1,0,0,-5],[1,0,0,0,5],[1,1,0,0,-5]];perimeter=orthogonalPerimeter;outlineConnect=0;targetShapes=umlLifeline;portConstraint=eastwest;newEdgeStyle={&quot;curved&quot;:0,&quot;rounded&quot;:0};" parent="FeGgzAsvBUvjDZ8w_RRN-7" vertex="1">
          <mxGeometry x="55" y="1110" width="10" height="70" as="geometry" />
        </mxCell>
        <mxCell id="FeGgzAsvBUvjDZ8w_RRN-8" value="" style="shape=umlLifeline;perimeter=lifelinePerimeter;whiteSpace=wrap;html=1;container=1;dropTarget=0;collapsible=0;recursiveResize=0;outlineConnect=0;portConstraint=eastwest;newEdgeStyle={&quot;curved&quot;:0,&quot;rounded&quot;:0};participant=umlActor;" parent="1" vertex="1">
          <mxGeometry x="1160" y="50" width="20" height="1470" as="geometry" />
        </mxCell>
        <mxCell id="y2ZRHQF2_I_StF2kvI1N-2" value="" style="html=1;points=[[0,0,0,0,5],[0,1,0,0,-5],[1,0,0,0,5],[1,1,0,0,-5]];perimeter=orthogonalPerimeter;outlineConnect=0;targetShapes=umlLifeline;portConstraint=eastwest;newEdgeStyle={&quot;curved&quot;:0,&quot;rounded&quot;:0};" parent="FeGgzAsvBUvjDZ8w_RRN-8" vertex="1">
          <mxGeometry x="5" y="290" width="10" height="170" as="geometry" />
        </mxCell>
        <mxCell id="EF1INXUBX0xFHSXuswrt-63" value="" style="html=1;points=[[0,0,0,0,5],[0,1,0,0,-5],[1,0,0,0,5],[1,1,0,0,-5]];perimeter=orthogonalPerimeter;outlineConnect=0;targetShapes=umlLifeline;portConstraint=eastwest;newEdgeStyle={&quot;curved&quot;:0,&quot;rounded&quot;:0};" parent="FeGgzAsvBUvjDZ8w_RRN-8" vertex="1">
          <mxGeometry x="5" y="1190" width="10" height="90" as="geometry" />
        </mxCell>
        <mxCell id="FeGgzAsvBUvjDZ8w_RRN-9" value="Purchase Manager" style="text;html=1;align=center;verticalAlign=middle;whiteSpace=wrap;rounded=0;" parent="1" vertex="1">
          <mxGeometry x="330" y="10" width="60" height="30" as="geometry" />
        </mxCell>
        <mxCell id="FeGgzAsvBUvjDZ8w_RRN-10" value="Branch Manager" style="text;html=1;align=center;verticalAlign=middle;whiteSpace=wrap;rounded=0;" parent="1" vertex="1">
          <mxGeometry x="210" y="10" width="60" height="30" as="geometry" />
        </mxCell>
        <mxCell id="FeGgzAsvBUvjDZ8w_RRN-11" value="Vendor" style="text;html=1;align=center;verticalAlign=middle;whiteSpace=wrap;rounded=0;" parent="1" vertex="1">
          <mxGeometry x="1140" y="10" width="60" height="30" as="geometry" />
        </mxCell>
        <mxCell id="FeGgzAsvBUvjDZ8w_RRN-14" value="Navigate to Media Procuremnt&amp;nbsp;&lt;div&gt;Section&lt;/div&gt;" style="html=1;verticalAlign=bottom;endArrow=block;curved=0;rounded=0;" parent="1" edge="1">
          <mxGeometry width="80" relative="1" as="geometry">
            <mxPoint x="359.5" y="180" as="sourcePoint" />
            <mxPoint x="519.5" y="180" as="targetPoint" />
          </mxGeometry>
        </mxCell>
        <mxCell id="FeGgzAsvBUvjDZ8w_RRN-15" value="Select media items from&amp;nbsp;&lt;div&gt;vendor catalogue or input&amp;nbsp;&lt;/div&gt;&lt;div&gt;manually&lt;/div&gt;" style="html=1;verticalAlign=bottom;endArrow=block;curved=0;rounded=0;" parent="1" edge="1">
          <mxGeometry width="80" relative="1" as="geometry">
            <mxPoint x="359.5" y="240" as="sourcePoint" />
            <mxPoint x="519.5" y="240" as="targetPoint" />
          </mxGeometry>
        </mxCell>
        <mxCell id="FeGgzAsvBUvjDZ8w_RRN-18" value="Notify Vendor of order" style="html=1;verticalAlign=bottom;endArrow=block;curved=0;rounded=0;" parent="1" target="FeGgzAsvBUvjDZ8w_RRN-8" edge="1">
          <mxGeometry width="80" relative="1" as="geometry">
            <mxPoint x="1000.0014285714285" y="370" as="sourcePoint" />
            <mxPoint x="1140" y="390" as="targetPoint" />
          </mxGeometry>
        </mxCell>
        <mxCell id="FeGgzAsvBUvjDZ8w_RRN-25" value="View purchase order status" style="html=1;verticalAlign=bottom;endArrow=block;curved=0;rounded=0;" parent="1" edge="1">
          <mxGeometry x="0.0062" width="80" relative="1" as="geometry">
            <mxPoint x="360" y="680" as="sourcePoint" />
            <mxPoint x="520" y="680" as="targetPoint" />
            <mxPoint as="offset" />
          </mxGeometry>
        </mxCell>
        <mxCell id="EF1INXUBX0xFHSXuswrt-4" value="AML System" style="shape=umlLifeline;perimeter=lifelinePerimeter;whiteSpace=wrap;html=1;container=1;dropTarget=0;collapsible=0;recursiveResize=0;outlineConnect=0;portConstraint=eastwest;newEdgeStyle={&quot;curved&quot;:0,&quot;rounded&quot;:0};" parent="1" vertex="1">
          <mxGeometry x="620" y="50" width="100" height="1470" as="geometry" />
        </mxCell>
        <mxCell id="EF1INXUBX0xFHSXuswrt-6" value="" style="html=1;points=[[0,0,0,0,5],[0,1,0,0,-5],[1,0,0,0,5],[1,1,0,0,-5]];perimeter=orthogonalPerimeter;outlineConnect=0;targetShapes=umlLifeline;portConstraint=eastwest;newEdgeStyle={&quot;curved&quot;:0,&quot;rounded&quot;:0};" parent="EF1INXUBX0xFHSXuswrt-4" vertex="1">
          <mxGeometry x="45" y="180" width="10" height="400" as="geometry" />
        </mxCell>
        <mxCell id="EF1INXUBX0xFHSXuswrt-41" value="" style="html=1;points=[[0,0,0,0,5],[0,1,0,0,-5],[1,0,0,0,5],[1,1,0,0,-5]];perimeter=orthogonalPerimeter;outlineConnect=0;targetShapes=umlLifeline;portConstraint=eastwest;newEdgeStyle={&quot;curved&quot;:0,&quot;rounded&quot;:0};" parent="EF1INXUBX0xFHSXuswrt-4" vertex="1">
          <mxGeometry x="45" y="800" width="10" height="120" as="geometry" />
        </mxCell>
        <mxCell id="EF1INXUBX0xFHSXuswrt-58" value="" style="html=1;points=[[0,0,0,0,5],[0,1,0,0,-5],[1,0,0,0,5],[1,1,0,0,-5]];perimeter=orthogonalPerimeter;outlineConnect=0;targetShapes=umlLifeline;portConstraint=eastwest;newEdgeStyle={&quot;curved&quot;:0,&quot;rounded&quot;:0};" parent="EF1INXUBX0xFHSXuswrt-4" vertex="1">
          <mxGeometry x="45" y="1140" width="10" height="240" as="geometry" />
        </mxCell>
        <mxCell id="EF1INXUBX0xFHSXuswrt-10" value="Save Order to Database" style="html=1;verticalAlign=bottom;endArrow=block;curved=0;rounded=0;" parent="1" target="EF1INXUBX0xFHSXuswrt-16" edge="1">
          <mxGeometry width="80" relative="1" as="geometry">
            <mxPoint x="677" y="300" as="sourcePoint" />
            <mxPoint x="827" y="300" as="targetPoint" />
          </mxGeometry>
        </mxCell>
        <mxCell id="EF1INXUBX0xFHSXuswrt-15" value="Database" style="shape=umlLifeline;perimeter=lifelinePerimeter;whiteSpace=wrap;html=1;container=1;dropTarget=0;collapsible=0;recursiveResize=0;outlineConnect=0;portConstraint=eastwest;newEdgeStyle={&quot;curved&quot;:0,&quot;rounded&quot;:0};" parent="1" vertex="1">
          <mxGeometry x="790" y="50" width="100" height="1470" as="geometry" />
        </mxCell>
        <mxCell id="EF1INXUBX0xFHSXuswrt-16" value="" style="html=1;points=[[0,0,0,0,5],[0,1,0,0,-5],[1,0,0,0,5],[1,1,0,0,-5]];perimeter=orthogonalPerimeter;outlineConnect=0;targetShapes=umlLifeline;portConstraint=eastwest;newEdgeStyle={&quot;curved&quot;:0,&quot;rounded&quot;:0};" parent="EF1INXUBX0xFHSXuswrt-15" vertex="1">
          <mxGeometry x="45" y="220" width="10" height="290" as="geometry" />
        </mxCell>
        <mxCell id="y2ZRHQF2_I_StF2kvI1N-20" value="" style="html=1;points=[[0,0,0,0,5],[0,1,0,0,-5],[1,0,0,0,5],[1,1,0,0,-5]];perimeter=orthogonalPerimeter;outlineConnect=0;targetShapes=umlLifeline;portConstraint=eastwest;newEdgeStyle={&quot;curved&quot;:0,&quot;rounded&quot;:0};" parent="EF1INXUBX0xFHSXuswrt-15" vertex="1">
          <mxGeometry x="45" y="850" width="10" height="50" as="geometry" />
        </mxCell>
        <mxCell id="EF1INXUBX0xFHSXuswrt-68" value="" style="html=1;points=[[0,0,0,0,5],[0,1,0,0,-5],[1,0,0,0,5],[1,1,0,0,-5]];perimeter=orthogonalPerimeter;outlineConnect=0;targetShapes=umlLifeline;portConstraint=eastwest;newEdgeStyle={&quot;curved&quot;:0,&quot;rounded&quot;:0};" parent="EF1INXUBX0xFHSXuswrt-15" vertex="1">
          <mxGeometry x="45" y="1260" width="10" height="90" as="geometry" />
        </mxCell>
        <mxCell id="EF1INXUBX0xFHSXuswrt-17" value="Email System" style="shape=umlLifeline;perimeter=lifelinePerimeter;whiteSpace=wrap;html=1;container=1;dropTarget=0;collapsible=0;recursiveResize=0;outlineConnect=0;portConstraint=eastwest;newEdgeStyle={&quot;curved&quot;:0,&quot;rounded&quot;:0};" parent="1" vertex="1">
          <mxGeometry x="940" y="50" width="100" height="1470" as="geometry" />
        </mxCell>
        <mxCell id="EF1INXUBX0xFHSXuswrt-18" value="" style="html=1;points=[[0,0,0,0,5],[0,1,0,0,-5],[1,0,0,0,5],[1,1,0,0,-5]];perimeter=orthogonalPerimeter;outlineConnect=0;targetShapes=umlLifeline;portConstraint=eastwest;newEdgeStyle={&quot;curved&quot;:0,&quot;rounded&quot;:0};" parent="EF1INXUBX0xFHSXuswrt-17" vertex="1">
          <mxGeometry x="45" y="270" width="10" height="110" as="geometry" />
        </mxCell>
        <mxCell id="EF1INXUBX0xFHSXuswrt-37" value="" style="html=1;points=[[0,0,0,0,5],[0,1,0,0,-5],[1,0,0,0,5],[1,1,0,0,-5]];perimeter=orthogonalPerimeter;outlineConnect=0;targetShapes=umlLifeline;portConstraint=eastwest;newEdgeStyle={&quot;curved&quot;:0,&quot;rounded&quot;:0};" parent="EF1INXUBX0xFHSXuswrt-17" vertex="1">
          <mxGeometry x="45" y="530" width="10" height="110" as="geometry" />
        </mxCell>
        <mxCell id="EF1INXUBX0xFHSXuswrt-47" value="" style="html=1;points=[[0,0,0,0,5],[0,1,0,0,-5],[1,0,0,0,5],[1,1,0,0,-5]];perimeter=orthogonalPerimeter;outlineConnect=0;targetShapes=umlLifeline;portConstraint=eastwest;newEdgeStyle={&quot;curved&quot;:0,&quot;rounded&quot;:0};" parent="EF1INXUBX0xFHSXuswrt-17" vertex="1">
          <mxGeometry x="45" y="890" width="10" height="130" as="geometry" />
        </mxCell>
        <mxCell id="EF1INXUBX0xFHSXuswrt-57" value="" style="html=1;points=[[0,0,0,0,5],[0,1,0,0,-5],[1,0,0,0,5],[1,1,0,0,-5]];perimeter=orthogonalPerimeter;outlineConnect=0;targetShapes=umlLifeline;portConstraint=eastwest;newEdgeStyle={&quot;curved&quot;:0,&quot;rounded&quot;:0};" parent="EF1INXUBX0xFHSXuswrt-17" vertex="1">
          <mxGeometry x="45" y="1170" width="10" height="70" as="geometry" />
        </mxCell>
        <mxCell id="EF1INXUBX0xFHSXuswrt-69" value="" style="html=1;points=[[0,0,0,0,5],[0,1,0,0,-5],[1,0,0,0,5],[1,1,0,0,-5]];perimeter=orthogonalPerimeter;outlineConnect=0;targetShapes=umlLifeline;portConstraint=eastwest;newEdgeStyle={&quot;curved&quot;:0,&quot;rounded&quot;:0};" parent="EF1INXUBX0xFHSXuswrt-17" vertex="1">
          <mxGeometry x="45" y="1320" width="10" height="90" as="geometry" />
        </mxCell>
        <mxCell id="EF1INXUBX0xFHSXuswrt-19" value="Validate order has been&lt;br&gt;submitted successfully" style="html=1;verticalAlign=bottom;endArrow=block;curved=0;rounded=0;" parent="1" edge="1">
          <mxGeometry width="80" relative="1" as="geometry">
            <mxPoint x="529.0714285714284" y="270" as="sourcePoint" />
            <mxPoint x="669.5" y="270" as="targetPoint" />
          </mxGeometry>
        </mxCell>
        <mxCell id="EF1INXUBX0xFHSXuswrt-22" value="Sends Order details to Email System" style="html=1;verticalAlign=bottom;endArrow=block;curved=0;rounded=0;" parent="1" target="EF1INXUBX0xFHSXuswrt-17" edge="1">
          <mxGeometry width="80" relative="1" as="geometry">
            <mxPoint x="669" y="340" as="sourcePoint" />
            <mxPoint x="827" y="340" as="targetPoint" />
          </mxGeometry>
        </mxCell>
        <mxCell id="EF1INXUBX0xFHSXuswrt-25" value="Notify Branch Manager of order" style="html=1;verticalAlign=bottom;endArrow=open;dashed=1;endSize=8;curved=0;rounded=0;" parent="1" target="FeGgzAsvBUvjDZ8w_RRN-5" edge="1">
          <mxGeometry relative="1" as="geometry">
            <mxPoint x="990" y="400" as="sourcePoint" />
            <mxPoint x="910" y="400" as="targetPoint" />
          </mxGeometry>
        </mxCell>
        <mxCell id="EF1INXUBX0xFHSXuswrt-26" value="Display purchase order status&lt;div&gt;e.g, in progress,etc&lt;/div&gt;" style="html=1;verticalAlign=bottom;endArrow=open;dashed=1;endSize=8;curved=0;rounded=0;" parent="1" source="FeGgzAsvBUvjDZ8w_RRN-7" edge="1">
          <mxGeometry relative="1" as="geometry">
            <mxPoint x="515" y="740" as="sourcePoint" />
            <mxPoint x="360.5" y="740" as="targetPoint" />
          </mxGeometry>
        </mxCell>
        <mxCell id="EF1INXUBX0xFHSXuswrt-28" value="Vendor updates Order Status" style="html=1;verticalAlign=bottom;endArrow=open;dashed=1;endSize=8;curved=0;rounded=0;" parent="1" edge="1">
          <mxGeometry relative="1" as="geometry">
            <mxPoint x="1170" y="449.99999999999994" as="sourcePoint" />
            <mxPoint x="669.0714285714284" y="449.99999999999994" as="targetPoint" />
          </mxGeometry>
        </mxCell>
        <mxCell id="EF1INXUBX0xFHSXuswrt-29" value="Update Order Status to Database" style="html=1;verticalAlign=bottom;endArrow=block;curved=0;rounded=0;" parent="1" target="EF1INXUBX0xFHSXuswrt-16" edge="1">
          <mxGeometry width="80" relative="1" as="geometry">
            <mxPoint x="669" y="490" as="sourcePoint" />
            <mxPoint x="827" y="490" as="targetPoint" />
          </mxGeometry>
        </mxCell>
        <mxCell id="EF1INXUBX0xFHSXuswrt-30" value="Return purchase&lt;div&gt;order status&lt;div&gt;e.g, in progress,etc&lt;/div&gt;&lt;/div&gt;" style="html=1;verticalAlign=bottom;endArrow=open;dashed=1;endSize=8;curved=0;rounded=0;" parent="1" target="y2ZRHQF2_I_StF2kvI1N-17" edge="1">
          <mxGeometry relative="1" as="geometry">
            <mxPoint x="674.5" y="560" as="sourcePoint" />
            <mxPoint x="520" y="560" as="targetPoint" />
          </mxGeometry>
        </mxCell>
        <mxCell id="EF1INXUBX0xFHSXuswrt-31" value="Return Order Information" style="html=1;verticalAlign=bottom;endArrow=open;dashed=1;endSize=8;curved=0;rounded=0;" parent="1" source="EF1INXUBX0xFHSXuswrt-16" edge="1">
          <mxGeometry relative="1" as="geometry">
            <mxPoint x="826.5" y="530" as="sourcePoint" />
            <mxPoint x="672" y="530" as="targetPoint" />
          </mxGeometry>
        </mxCell>
        <mxCell id="EF1INXUBX0xFHSXuswrt-33" value="Send Order Information" style="html=1;verticalAlign=bottom;endArrow=block;curved=0;rounded=0;" parent="1" target="EF1INXUBX0xFHSXuswrt-17" edge="1">
          <mxGeometry x="0.0062" width="80" relative="1" as="geometry">
            <mxPoint x="670" y="610" as="sourcePoint" />
            <mxPoint x="680" y="610" as="targetPoint" />
            <mxPoint as="offset" />
          </mxGeometry>
        </mxCell>
        <mxCell id="EF1INXUBX0xFHSXuswrt-34" value="Notify Purchase Manager of Order Status change" style="html=1;verticalAlign=bottom;endArrow=open;dashed=1;endSize=8;curved=0;rounded=0;" parent="1" target="FeGgzAsvBUvjDZ8w_RRN-6" edge="1">
          <mxGeometry relative="1" as="geometry">
            <mxPoint x="990" y="650" as="sourcePoint" />
            <mxPoint x="910" y="650" as="targetPoint" />
          </mxGeometry>
        </mxCell>
        <mxCell id="EF1INXUBX0xFHSXuswrt-40" value="Reject Order" style="html=1;verticalAlign=bottom;endArrow=open;dashed=1;endSize=8;curved=0;rounded=0;" parent="1" source="EF1INXUBX0xFHSXuswrt-44" target="EF1INXUBX0xFHSXuswrt-4" edge="1">
          <mxGeometry relative="1" as="geometry">
            <mxPoint x="1170" y="880" as="sourcePoint" />
            <mxPoint x="1090" y="880" as="targetPoint" />
          </mxGeometry>
        </mxCell>
        <mxCell id="EF1INXUBX0xFHSXuswrt-43" value="Update Order Status to Database" style="html=1;verticalAlign=bottom;endArrow=block;curved=0;rounded=0;" parent="1" edge="1">
          <mxGeometry width="80" relative="1" as="geometry">
            <mxPoint x="674" y="920" as="sourcePoint" />
            <mxPoint x="840" y="920" as="targetPoint" />
          </mxGeometry>
        </mxCell>
        <mxCell id="EF1INXUBX0xFHSXuswrt-45" value="" style="html=1;verticalAlign=bottom;endArrow=open;dashed=1;endSize=8;curved=0;rounded=0;" parent="1" target="EF1INXUBX0xFHSXuswrt-44" edge="1">
          <mxGeometry relative="1" as="geometry">
            <mxPoint x="1170" y="880" as="sourcePoint" />
            <mxPoint x="669" y="880" as="targetPoint" />
          </mxGeometry>
        </mxCell>
        <mxCell id="EF1INXUBX0xFHSXuswrt-44" value="" style="html=1;points=[[0,0,0,0,5],[0,1,0,0,-5],[1,0,0,0,5],[1,1,0,0,-5]];perimeter=orthogonalPerimeter;outlineConnect=0;targetShapes=umlLifeline;portConstraint=eastwest;newEdgeStyle={&quot;curved&quot;:0,&quot;rounded&quot;:0};" parent="1" vertex="1">
          <mxGeometry x="1165" y="850" width="10" height="50" as="geometry" />
        </mxCell>
        <mxCell id="EF1INXUBX0xFHSXuswrt-46" value="Send Order Status" style="html=1;verticalAlign=bottom;endArrow=block;curved=0;rounded=0;" parent="1" target="EF1INXUBX0xFHSXuswrt-17" edge="1">
          <mxGeometry width="80" relative="1" as="geometry">
            <mxPoint x="674" y="960" as="sourcePoint" />
            <mxPoint x="840" y="960" as="targetPoint" />
          </mxGeometry>
        </mxCell>
        <mxCell id="y2ZRHQF2_I_StF2kvI1N-13" value="Request change to&lt;div&gt;delivery location or date&lt;/div&gt;" style="html=1;verticalAlign=bottom;endArrow=block;curved=0;rounded=0;" parent="1" target="FeGgzAsvBUvjDZ8w_RRN-7" edge="1">
          <mxGeometry width="80" relative="1" as="geometry">
            <mxPoint x="360" y="1180" as="sourcePoint" />
            <mxPoint x="440" y="1130" as="targetPoint" />
          </mxGeometry>
        </mxCell>
        <mxCell id="y2ZRHQF2_I_StF2kvI1N-15" value="Validate order change&lt;div&gt;request&lt;/div&gt;" style="html=1;verticalAlign=bottom;endArrow=block;curved=0;rounded=0;" parent="1" target="EF1INXUBX0xFHSXuswrt-58" edge="1">
          <mxGeometry width="80" relative="1" as="geometry">
            <mxPoint x="527" y="1210" as="sourcePoint" />
            <mxPoint x="660" y="1210" as="targetPoint" />
            <mxPoint as="offset" />
          </mxGeometry>
        </mxCell>
        <mxCell id="EF1INXUBX0xFHSXuswrt-49" value="Notify order status change(rejected)" style="html=1;verticalAlign=bottom;endArrow=open;dashed=1;endSize=8;curved=0;rounded=0;entryX=0.244;entryY=0.724;entryDx=0;entryDy=0;entryPerimeter=0;" parent="1" source="EF1INXUBX0xFHSXuswrt-17" target="y2ZRHQF2_I_StF2kvI1N-18" edge="1">
          <mxGeometry relative="1" as="geometry">
            <mxPoint x="970" y="1030" as="sourcePoint" />
            <mxPoint x="890" y="1030" as="targetPoint" />
          </mxGeometry>
        </mxCell>
        <mxCell id="EF1INXUBX0xFHSXuswrt-51" value="Notify order status change(rejected)" style="html=1;verticalAlign=bottom;endArrow=open;dashed=1;endSize=8;curved=0;rounded=0;entryX=0.244;entryY=0.724;entryDx=0;entryDy=0;entryPerimeter=0;" parent="1" edge="1">
          <mxGeometry relative="1" as="geometry">
            <mxPoint x="986.5" y="1010" as="sourcePoint" />
            <mxPoint x="353.5" y="1010" as="targetPoint" />
          </mxGeometry>
        </mxCell>
        <mxCell id="EF1INXUBX0xFHSXuswrt-61" value="Send Order edit details to email system" style="html=1;verticalAlign=bottom;endArrow=block;curved=0;rounded=0;" parent="1" target="EF1INXUBX0xFHSXuswrt-17" edge="1">
          <mxGeometry width="80" relative="1" as="geometry">
            <mxPoint x="670" y="1240" as="sourcePoint" />
            <mxPoint x="808" y="1240" as="targetPoint" />
            <mxPoint as="offset" />
          </mxGeometry>
        </mxCell>
        <mxCell id="EF1INXUBX0xFHSXuswrt-62" value="Notify Vendor of edit&lt;div&gt;request&lt;/div&gt;" style="html=1;verticalAlign=bottom;endArrow=block;curved=0;rounded=0;" parent="1" target="FeGgzAsvBUvjDZ8w_RRN-8" edge="1">
          <mxGeometry width="80" relative="1" as="geometry">
            <mxPoint x="990" y="1260" as="sourcePoint" />
            <mxPoint x="1128" y="1260" as="targetPoint" />
            <mxPoint as="offset" />
          </mxGeometry>
        </mxCell>
        <mxCell id="EF1INXUBX0xFHSXuswrt-64" value="Return confirmation/rejection" style="html=1;verticalAlign=bottom;endArrow=open;dashed=1;endSize=8;curved=0;rounded=0;" parent="1" edge="1">
          <mxGeometry relative="1" as="geometry">
            <mxPoint x="1175" y="1320" as="sourcePoint" />
            <mxPoint x="680" y="1320" as="targetPoint" />
          </mxGeometry>
        </mxCell>
        <mxCell id="EF1INXUBX0xFHSXuswrt-67" value="Update Order Details" style="html=1;verticalAlign=bottom;endArrow=block;curved=0;rounded=0;" parent="1" target="EF1INXUBX0xFHSXuswrt-15" edge="1">
          <mxGeometry width="80" relative="1" as="geometry">
            <mxPoint x="670" y="1360" as="sourcePoint" />
            <mxPoint x="808" y="1360" as="targetPoint" />
            <mxPoint as="offset" />
          </mxGeometry>
        </mxCell>
        <mxCell id="EF1INXUBX0xFHSXuswrt-70" value="Send Order Details" style="html=1;verticalAlign=bottom;endArrow=block;curved=0;rounded=0;" parent="1" target="EF1INXUBX0xFHSXuswrt-17" edge="1">
          <mxGeometry width="80" relative="1" as="geometry">
            <mxPoint x="672" y="1400" as="sourcePoint" />
            <mxPoint x="842" y="1400" as="targetPoint" />
            <mxPoint as="offset" />
          </mxGeometry>
        </mxCell>
        <mxCell id="EF1INXUBX0xFHSXuswrt-71" value="Notify Purchase Manager of order details" style="html=1;verticalAlign=bottom;endArrow=open;dashed=1;endSize=8;curved=0;rounded=0;" parent="1" edge="1">
          <mxGeometry relative="1" as="geometry">
            <mxPoint x="990.4300000000004" y="1440" as="sourcePoint" />
            <mxPoint x="360.00142857142845" y="1440" as="targetPoint" />
          </mxGeometry>
        </mxCell>
        <mxCell id="eItlePk7LkcMVu8cj4zS-1" value="Alt 1" style="shape=umlFrame;whiteSpace=wrap;html=1;pointerEvents=0;" vertex="1" parent="1">
          <mxGeometry x="150" y="800" width="1140" height="300" as="geometry" />
        </mxCell>
        <mxCell id="eItlePk7LkcMVu8cj4zS-2" value="Alt 2" style="shape=umlFrame;whiteSpace=wrap;html=1;pointerEvents=0;" vertex="1" parent="1">
          <mxGeometry x="150" y="1130" width="1140" height="390" as="geometry" />
        </mxCell>
      </root>
    </mxGraphModel>
  </diagram>
</mxfile>
